<svg width="201" height="106" viewBox="0 0 201 106" fill="none" xmlns="http://www.w3.org/2000/svg">
<path d="M89.1269 1.20408C89.1269 1.4617 88.917 1.67162 88.6594 1.67162C87.7434 1.67162 86.837 1.67162 85.921 1.6907C85.6634 1.6907 85.463 1.49033 85.4535 1.23271C85.4535 0.975089 85.6539 0.765177 85.9115 0.765177C86.8275 0.755635 87.753 0.746094 88.669 0.746094C88.9266 0.746094 89.1365 0.956006 89.1365 1.21363L89.1269 1.20408ZM77.639 1.04188C76.723 1.08959 75.8071 1.14684 74.8815 1.20408C74.6239 1.22317 74.4331 1.44262 74.4522 1.70024C74.4712 1.94832 74.6716 2.13915 74.9102 2.13915C74.9197 2.13915 74.9292 2.13915 74.9388 2.13915C75.8548 2.0819 76.7707 2.02465 77.6772 1.97694C77.9348 1.9674 78.1256 1.74795 78.1161 1.49033C78.1066 1.23271 77.8871 1.03234 77.6295 1.05142L77.639 1.04188ZM83.154 0.822426C82.238 0.85105 81.3125 0.879674 80.3965 0.91784C80.1389 0.927382 79.9385 1.14684 79.9481 1.39491C79.9576 1.64299 80.1675 1.84336 80.4156 1.84336H80.4347C81.3506 1.8052 82.2666 1.77657 83.1826 1.74795C83.4402 1.74795 83.6406 1.52849 83.6311 1.27087C83.6311 1.01326 83.4116 0.822426 83.154 0.822426ZM72.1336 1.39491C71.2176 1.4617 70.3016 1.53804 69.3856 1.62391C69.128 1.64299 68.9372 1.87199 68.9658 2.12961C68.9849 2.36814 69.1853 2.54943 69.4238 2.54943C69.4333 2.54943 69.4524 2.54943 69.462 2.54943C70.3779 2.46356 71.2844 2.39677 72.2004 2.32044C72.458 2.30135 72.6488 2.0819 72.6297 1.82428C72.6107 1.56666 72.3912 1.37583 72.1336 1.39491ZM94.1744 0.803343C93.2584 0.78426 92.3424 0.765177 91.4169 0.755635C91.1784 0.755635 90.9494 0.956006 90.9494 1.21363C90.9494 1.47125 91.1497 1.68116 91.4074 1.68116C92.3233 1.68116 93.2393 1.70978 94.1458 1.72887H94.1553C94.4034 1.72887 94.6133 1.52849 94.6228 1.27087C94.6228 1.01326 94.4225 0.803343 94.1648 0.793801L94.1744 0.803343ZM66.6377 1.88153C65.7217 1.97694 64.8057 2.07236 63.8993 2.17732C63.6417 2.20594 63.4604 2.43493 63.489 2.69255C63.5176 2.93109 63.718 3.10284 63.947 3.10284C63.9661 3.10284 63.9852 3.10284 64.0042 3.10284C64.9202 2.99788 65.8267 2.90247 66.7331 2.80705C66.9907 2.77843 67.172 2.54943 67.1434 2.30135C67.1148 2.04373 66.8953 1.86245 66.6377 1.89107V1.88153ZM61.1609 2.51127C60.2544 2.62576 59.3385 2.7498 58.432 2.87384C58.1744 2.91201 58.0026 3.141 58.0408 3.39862C58.0694 3.62762 58.2698 3.79937 58.4988 3.79937C58.5179 3.79937 58.537 3.79937 58.5656 3.79937C59.472 3.67533 60.3785 3.55129 61.2849 3.43679C61.5425 3.40817 61.7238 3.16963 61.6857 2.92155C61.657 2.66393 61.428 2.48264 61.1704 2.52081L61.1609 2.51127ZM116.148 2.38723C115.242 2.27273 114.326 2.16777 113.41 2.06282C113.162 2.03419 112.923 2.21548 112.895 2.4731C112.866 2.73072 113.047 2.95972 113.305 2.98834C114.221 3.0933 115.127 3.19825 116.034 3.30321C116.053 3.30321 116.072 3.30321 116.091 3.30321C116.32 3.30321 116.521 3.13146 116.549 2.89293C116.578 2.63531 116.396 2.40631 116.148 2.37769V2.38723ZM99.6894 0.994172C98.7734 0.946465 97.8574 0.91784 96.9319 0.879674C96.6742 0.879674 96.4643 1.0705 96.4548 1.32812C96.4548 1.58574 96.6456 1.79566 96.9032 1.8052C97.8192 1.83382 98.7352 1.87199 99.6417 1.9197H99.6607C99.9088 1.9197 100.109 1.72887 100.128 1.48079C100.138 1.22317 99.9374 1.00371 99.6894 0.994172ZM121.606 3.141C120.7 3.00742 119.793 2.87384 118.877 2.7498C118.62 2.71164 118.391 2.89293 118.352 3.15055C118.314 3.40817 118.496 3.63716 118.753 3.67533C119.66 3.79937 120.566 3.93295 121.463 4.06653C121.482 4.06653 121.511 4.06653 121.53 4.06653C121.759 4.06653 121.95 3.90432 121.988 3.67533C122.026 3.41771 121.854 3.18871 121.597 3.15055L121.606 3.141ZM110.672 1.78611C109.756 1.70024 108.849 1.61437 107.933 1.53804C107.695 1.52849 107.456 1.70024 107.427 1.95786C107.408 2.21548 107.599 2.43493 107.847 2.46356C108.763 2.53989 109.67 2.62576 110.576 2.71164C110.595 2.71164 110.605 2.71164 110.624 2.71164C110.862 2.71164 111.063 2.53035 111.082 2.29181C111.111 2.03419 110.92 1.8052 110.662 1.78611H110.672ZM105.185 1.31858C104.269 1.25179 103.353 1.19454 102.437 1.13729H102.409C102.161 1.13729 101.96 1.32812 101.941 1.5762C101.922 1.83382 102.122 2.05328 102.38 2.06282C103.296 2.12007 104.202 2.17731 105.118 2.24411H105.157C105.395 2.24411 105.605 2.06282 105.615 1.81474C105.634 1.55712 105.443 1.33767 105.185 1.31858ZM44.845 5.22105C43.9481 5.40233 43.0512 5.60271 42.1447 5.79353C41.8966 5.85078 41.7344 6.09886 41.7917 6.34694C41.8394 6.56639 42.0302 6.70952 42.2401 6.70952C42.2688 6.70952 42.3069 6.70952 42.3356 6.69997C43.2325 6.4996 44.1293 6.30877 45.0167 6.12749C45.2648 6.07978 45.427 5.8317 45.3793 5.57408C45.322 5.326 45.0835 5.1638 44.8259 5.2115L44.845 5.22105ZM55.7032 3.27459C54.7967 3.41771 53.8903 3.56083 52.9838 3.71349C52.7262 3.75166 52.564 3.9902 52.6022 4.24782C52.6403 4.47681 52.8407 4.63902 53.0602 4.63902C53.0888 4.63902 53.1079 4.63902 53.1365 4.63902C54.0429 4.48635 54.9398 4.34323 55.8463 4.20965C56.1039 4.17148 56.2756 3.93295 56.2375 3.68487C56.1993 3.42725 55.9608 3.2555 55.7127 3.29367L55.7032 3.27459ZM8.0244 16.6136C7.17521 16.9666 6.33556 17.3387 5.49591 17.7013C5.25737 17.8063 5.15242 18.083 5.25737 18.312C5.3337 18.4837 5.50546 18.5887 5.68674 18.5887C5.75353 18.5887 5.81078 18.5791 5.87757 18.5505C6.71722 18.1784 7.55687 17.8158 8.39652 17.4628C8.63506 17.3673 8.74001 17.0906 8.6446 16.8521C8.54918 16.6136 8.27248 16.5086 8.03395 16.604L8.0244 16.6136ZM23.5293 10.8505C22.6515 11.1368 21.7832 11.423 20.9149 11.7188C20.6764 11.8047 20.5428 12.0623 20.6287 12.3104C20.6955 12.5012 20.8768 12.6252 21.0676 12.6252C21.1153 12.6252 21.163 12.6252 21.2203 12.5966C22.0885 12.3008 22.9568 12.0146 23.8251 11.7379C24.0732 11.6615 24.2067 11.3944 24.1209 11.1558C24.0445 10.9078 23.7774 10.7742 23.5388 10.8601L23.5293 10.8505ZM18.3101 12.6252C17.4418 12.9306 16.5831 13.2454 15.7148 13.5698C15.4763 13.6557 15.3523 13.9229 15.4381 14.171C15.5049 14.3618 15.6862 14.4763 15.877 14.4763C15.9343 14.4763 15.982 14.4763 16.0392 14.4477C16.898 14.1328 17.7567 13.8179 18.6154 13.5126C18.854 13.4267 18.9876 13.1596 18.9017 12.921C18.8158 12.6825 18.5486 12.5489 18.3101 12.6348V12.6252ZM199.197 47.2131C199.255 47.423 199.436 47.5566 199.646 47.5566C199.684 47.5566 199.722 47.5566 199.77 47.5375C200.018 47.4707 200.161 47.2131 200.094 46.965C199.856 46.0872 199.56 45.1903 199.217 44.322C199.121 44.0835 198.854 43.969 198.615 44.0549C198.377 44.1503 198.262 44.4174 198.348 44.656C198.682 45.4956 198.959 46.3543 199.197 47.2131ZM2.95788 18.8272C2.12777 19.2088 1.28812 19.6 0.458011 19.9913C0.229016 20.1057 0.124057 20.3825 0.238554 20.6114C0.314886 20.7737 0.486635 20.8786 0.658381 20.8786C0.725172 20.8786 0.791961 20.8595 0.858752 20.8309C1.68886 20.4397 2.50943 20.0485 3.33953 19.6668C3.56853 19.5619 3.67349 19.2852 3.56853 19.0562C3.46358 18.8272 3.18688 18.7222 2.95788 18.8272ZM13.1195 14.5335C12.2608 14.8675 11.4116 15.2014 10.5529 15.5545C10.3144 15.6499 10.1999 15.917 10.2953 16.1556C10.3716 16.3369 10.5434 16.4418 10.7246 16.4418C10.7819 16.4418 10.8391 16.4323 10.8964 16.4037C11.7456 16.0602 12.5948 15.7262 13.444 15.3923C13.6825 15.2968 13.797 15.0297 13.7111 14.7911C13.6157 14.5526 13.3485 14.4381 13.11 14.524L13.1195 14.5335ZM28.7771 9.21892C27.8993 9.47654 27.0119 9.74371 26.1341 10.0109C25.886 10.0872 25.7525 10.3448 25.8288 10.5929C25.886 10.7933 26.0769 10.9173 26.2677 10.9173C26.3154 10.9173 26.3631 10.9173 26.4013 10.8982C27.2791 10.6311 28.1569 10.3639 29.0252 10.1063C29.2733 10.03 29.4164 9.77233 29.3401 9.53379C29.2637 9.28571 29.0061 9.14259 28.7676 9.21892H28.7771ZM127.026 4.02836C126.129 3.86616 125.222 3.71349 124.306 3.56083C124.058 3.52266 123.81 3.69441 123.772 3.94249C123.734 4.20011 123.906 4.43864 124.154 4.47681C125.06 4.62947 125.957 4.78214 126.854 4.9348C126.883 4.9348 126.911 4.9348 126.94 4.9348C127.159 4.9348 127.36 4.7726 127.398 4.55314C127.446 4.30506 127.274 4.05699 127.026 4.01882V4.02836ZM50.2454 4.18103C49.339 4.34323 48.4326 4.51498 47.5357 4.68672C47.2876 4.73443 47.1158 4.98251 47.1635 5.23059C47.2017 5.45004 47.4021 5.60271 47.6215 5.60271C47.6502 5.60271 47.6788 5.60271 47.7074 5.60271C48.6043 5.43096 49.5107 5.25921 50.4076 5.09701C50.6557 5.0493 50.8275 4.81076 50.7798 4.56268C50.732 4.31461 50.4935 4.14286 50.2454 4.19057V4.18103ZM34.0917 7.74954C33.2044 7.97853 32.317 8.22661 31.4296 8.46515C31.1816 8.53194 31.0384 8.78956 31.1052 9.03764C31.1625 9.24755 31.3533 9.38113 31.5537 9.38113C31.5918 9.38113 31.6395 9.38113 31.6777 9.36205C32.5555 9.11397 33.4429 8.87543 34.3303 8.64644C34.5783 8.57965 34.7214 8.33157 34.6642 8.08349C34.5974 7.83541 34.3493 7.69229 34.1013 7.74954H34.0917ZM39.4445 6.41373C38.5476 6.62364 37.6602 6.8431 36.7633 7.06255C36.5152 7.12934 36.3626 7.37742 36.4294 7.6255C36.4866 7.83541 36.6679 7.97853 36.8778 7.97853C36.916 7.97853 36.9542 7.97853 36.9923 7.96899C37.8797 7.74954 38.767 7.53008 39.6639 7.32017C39.912 7.26292 40.0647 7.01484 40.0074 6.76677C39.9502 6.51869 39.7021 6.35648 39.454 6.42327L39.4445 6.41373ZM199.741 49.8274C199.875 50.7148 199.961 51.6117 199.989 52.4991C199.989 52.7471 200.199 52.9475 200.457 52.9475H200.476C200.734 52.9475 200.934 52.7281 200.924 52.4704C200.896 51.5449 200.81 50.6098 200.667 49.6843C200.629 49.4267 200.39 49.255 200.142 49.2931C199.884 49.3313 199.713 49.5698 199.751 49.8179L199.741 49.8274ZM185.448 27.1951C185.248 27.0329 184.952 27.071 184.799 27.2714C184.637 27.4718 184.675 27.7676 184.876 27.9202C185.601 28.4927 186.297 29.0747 186.975 29.6568C187.061 29.7331 187.175 29.7713 187.28 29.7713C187.414 29.7713 187.538 29.714 187.633 29.6091C187.805 29.4182 187.776 29.1224 187.585 28.9507C186.898 28.3591 186.183 27.7676 185.448 27.1855V27.1951ZM190.009 73.9388C189.379 74.5685 188.721 75.1982 188.043 75.8184C187.853 75.9902 187.843 76.286 188.015 76.4768C188.11 76.5817 188.234 76.6294 188.358 76.6294C188.473 76.6294 188.578 76.5913 188.673 76.5054C189.36 75.8757 190.038 75.2364 190.677 74.5876C190.858 74.4063 190.858 74.1105 190.677 73.9292C190.496 73.7479 190.2 73.7479 190.019 73.9292L190.009 73.9388ZM189.627 30.8208C189.446 30.6395 189.15 30.6491 188.969 30.8399C188.797 31.0212 188.797 31.317 188.988 31.4983C189.656 32.128 190.305 32.7768 190.906 33.4256C191.001 33.5211 191.116 33.5688 191.24 33.5688C191.354 33.5688 191.469 33.5306 191.555 33.4447C191.746 33.273 191.746 32.9772 191.574 32.7864C190.954 32.128 190.295 31.4696 189.618 30.8208H189.627ZM180.983 23.9319C180.773 23.7888 180.487 23.846 180.343 24.0559C180.2 24.2658 180.258 24.5521 180.468 24.7047C181.231 25.22 181.975 25.7448 182.7 26.2791C182.786 26.3363 182.881 26.365 182.977 26.365C183.12 26.365 183.263 26.2982 183.349 26.1741C183.502 25.9642 183.454 25.678 183.244 25.5253C182.509 24.991 181.756 24.4567 180.983 23.9414V23.9319ZM185.982 77.6122C185.295 78.1847 184.589 78.7477 183.855 79.3201C183.654 79.4728 183.616 79.7686 183.769 79.969C183.864 80.0835 183.998 80.1503 184.131 80.1503C184.227 80.1503 184.332 80.1216 184.418 80.0548C185.162 79.4824 185.878 78.9003 186.574 78.3278C186.774 78.1656 186.794 77.8698 186.631 77.6695C186.469 77.4691 186.173 77.45 185.982 77.6122ZM193.616 69.8741C193.072 70.5706 192.49 71.2671 191.87 71.9541C191.698 72.145 191.717 72.4407 191.908 72.6125C191.994 72.6888 192.108 72.727 192.213 72.727C192.337 72.727 192.471 72.6697 192.557 72.5743C193.186 71.8683 193.778 71.1526 194.341 70.4466C194.503 70.2462 194.465 69.9504 194.264 69.7978C194.064 69.6451 193.768 69.6737 193.616 69.8741ZM200.419 54.7699C200.171 54.7509 199.942 54.9321 199.913 55.1898C199.837 56.0771 199.703 56.974 199.522 57.8518C199.474 58.0999 199.627 58.348 199.884 58.4052C199.913 58.4052 199.951 58.4148 199.98 58.4148C200.19 58.4148 200.39 58.2621 200.438 58.0427C200.629 57.1267 200.762 56.2012 200.848 55.2756C200.867 55.018 200.686 54.7986 200.428 54.7699H200.419ZM132.436 5.06838C131.539 4.88709 130.642 4.70581 129.735 4.53406C129.487 4.48635 129.239 4.64856 129.192 4.90618C129.144 5.15426 129.306 5.40233 129.564 5.45004C130.47 5.62179 131.358 5.80308 132.254 5.98436C132.283 5.98436 132.321 5.98436 132.35 5.98436C132.569 5.98436 132.76 5.8317 132.808 5.61225C132.856 5.36417 132.693 5.11609 132.445 5.06838H132.436ZM181.67 80.9517C180.945 81.4765 180.2 81.9918 179.427 82.507C179.218 82.6501 179.16 82.9364 179.303 83.1463C179.389 83.2799 179.542 83.3562 179.685 83.3562C179.771 83.3562 179.866 83.3276 179.943 83.2799C180.725 82.7551 181.479 82.2303 182.214 81.7055C182.423 81.5528 182.471 81.2666 182.319 81.0567C182.166 80.8468 181.88 80.7991 181.67 80.9517ZM195.142 37.0419C194.608 36.3072 194.035 35.5725 193.434 34.8569C193.272 34.6565 192.976 34.6374 192.776 34.7996C192.576 34.9618 192.557 35.2576 192.719 35.458C193.31 36.1641 193.873 36.8797 194.389 37.5953C194.474 37.7193 194.617 37.7861 194.761 37.7861C194.856 37.7861 194.951 37.7575 195.037 37.7002C195.247 37.5476 195.285 37.2613 195.142 37.0514V37.0419ZM197.27 65.1988C197.051 65.0747 196.764 65.1511 196.64 65.3801C196.211 66.1529 195.734 66.9258 195.219 67.6891C195.076 67.899 195.133 68.1852 195.343 68.3284C195.419 68.3856 195.514 68.4047 195.6 68.4047C195.753 68.4047 195.896 68.3284 195.982 68.2043C196.507 67.4219 197.003 66.63 197.442 65.838C197.566 65.6186 197.489 65.3323 197.26 65.2083L197.27 65.1988ZM198.062 41.7744C197.652 40.9634 197.194 40.1524 196.698 39.3509C196.564 39.1315 196.278 39.0647 196.058 39.1982C195.839 39.3318 195.772 39.6181 195.906 39.8375C196.392 40.6199 196.831 41.4119 197.232 42.1943C197.308 42.3565 197.48 42.4519 197.642 42.4519C197.709 42.4519 197.785 42.4328 197.852 42.4042C198.081 42.2897 198.176 42.013 198.052 41.784L198.062 41.7744ZM199.417 60.1513C199.169 60.075 198.911 60.2086 198.835 60.4471C198.558 61.2868 198.234 62.1264 197.862 62.9661C197.757 63.2046 197.862 63.4718 198.1 63.5767C198.157 63.6053 198.224 63.6149 198.291 63.6149C198.472 63.6149 198.634 63.5099 198.711 63.3382C199.092 62.4794 199.436 61.6016 199.722 60.7334C199.799 60.4853 199.674 60.2277 199.426 60.1513H199.417ZM163.999 14.7911C163.159 14.4286 162.31 14.0755 161.461 13.7225C161.222 13.6271 160.955 13.7416 160.86 13.9801C160.764 14.2187 160.879 14.4858 161.117 14.5812C161.967 14.9247 162.816 15.2778 163.646 15.6403C163.703 15.669 163.77 15.6785 163.827 15.6785C164.008 15.6785 164.18 15.5735 164.257 15.4018C164.361 15.1633 164.257 14.8961 164.018 14.7911H163.999ZM153.713 10.8314C152.845 10.5356 151.977 10.2494 151.099 9.96316C150.86 9.88683 150.593 10.0204 150.517 10.2589C150.44 10.507 150.574 10.7646 150.813 10.841C151.69 11.1272 152.559 11.4135 153.417 11.7093C153.465 11.7283 153.522 11.7379 153.57 11.7379C153.761 11.7379 153.942 11.6138 154.009 11.423C154.095 11.1845 153.961 10.9173 153.723 10.8314H153.713ZM158.894 12.7111C158.045 12.3867 157.186 12.0623 156.308 11.7474C156.07 11.6615 155.803 11.7856 155.717 12.0241C155.631 12.2627 155.755 12.5298 155.994 12.6157C156.862 12.9306 157.711 13.2454 158.56 13.5794C158.618 13.5985 158.675 13.608 158.722 13.608C158.913 13.608 159.085 13.4935 159.152 13.3122C159.247 13.0737 159.123 12.8065 158.885 12.7111H158.894ZM148.465 9.13305C147.588 8.86589 146.71 8.60827 145.822 8.35065C145.574 8.28386 145.317 8.42698 145.25 8.66552C145.183 8.9136 145.326 9.17122 145.565 9.23801C146.452 9.49563 147.32 9.75325 148.189 10.0109C148.236 10.0204 148.275 10.03 148.322 10.03C148.523 10.03 148.704 9.90591 148.771 9.70554C148.847 9.45746 148.704 9.19984 148.465 9.12351V9.13305ZM143.17 7.61596C142.292 7.37742 141.395 7.14842 140.508 6.91943C140.26 6.86218 140.002 7.0053 139.945 7.25338C139.878 7.50146 140.031 7.74954 140.279 7.81633C141.166 8.04532 142.054 8.27432 142.931 8.51286C142.97 8.5224 143.008 8.53194 143.055 8.53194C143.256 8.53194 143.447 8.39836 143.504 8.18845C143.571 7.94037 143.427 7.68275 143.179 7.61596H143.17ZM137.827 6.26107C136.939 6.05115 136.042 5.84124 135.136 5.64087C134.888 5.58362 134.64 5.74583 134.583 5.99391C134.525 6.24198 134.687 6.49006 134.936 6.54731C135.832 6.74768 136.72 6.94805 137.607 7.15797C137.645 7.15797 137.684 7.16751 137.712 7.16751C137.922 7.16751 138.113 7.02438 138.161 6.81447C138.218 6.56639 138.065 6.31832 137.817 6.25153L137.827 6.26107ZM172.443 86.8007C171.661 87.2396 170.859 87.6785 170.048 88.1174C169.819 88.2414 169.733 88.5181 169.857 88.7471C169.943 88.8998 170.105 88.9952 170.268 88.9952C170.344 88.9952 170.42 88.9761 170.487 88.938C171.308 88.499 172.119 88.0506 172.901 87.6117C173.121 87.4876 173.206 87.2014 173.073 86.982C172.949 86.7625 172.663 86.6766 172.443 86.8007ZM167.615 89.3864C166.814 89.7967 165.993 90.1974 165.163 90.6077C164.934 90.7222 164.839 90.9989 164.953 91.2279C165.029 91.3901 165.201 91.4855 165.373 91.4855C165.44 91.4855 165.506 91.4664 165.573 91.4378C166.413 91.0275 167.233 90.6173 168.035 90.207C168.264 90.0925 168.35 89.8158 168.235 89.5868C168.121 89.3578 167.835 89.2719 167.615 89.3864ZM177.138 84.005C176.384 84.4821 175.601 84.9592 174.809 85.4362C174.59 85.5698 174.514 85.8561 174.647 86.0755C174.733 86.2186 174.886 86.3045 175.048 86.3045C175.124 86.3045 175.21 86.2854 175.286 86.2377C176.088 85.7606 176.87 85.274 177.634 84.797C177.853 84.6634 177.91 84.3771 177.777 84.1577C177.643 83.9382 177.357 83.8714 177.138 84.0146V84.005ZM173.922 19.6287C173.121 19.1898 172.31 18.7509 171.489 18.331C171.26 18.2165 170.983 18.3024 170.859 18.5314C170.745 18.7604 170.831 19.0371 171.06 19.1611C171.88 19.581 172.682 20.0103 173.474 20.4492C173.55 20.4874 173.626 20.5065 173.703 20.5065C173.865 20.5065 174.027 20.4206 174.113 20.268C174.237 20.039 174.151 19.7623 173.932 19.6382L173.922 19.6287ZM178.683 22.4339C177.91 21.9473 177.128 21.4702 176.327 21.0026C176.107 20.8786 175.821 20.9454 175.697 21.1649C175.563 21.3843 175.639 21.6705 175.859 21.8041C176.651 22.2717 177.433 22.7487 178.197 23.2258C178.273 23.2735 178.359 23.2926 178.445 23.2926C178.597 23.2926 178.75 23.2163 178.836 23.0731C178.969 22.8537 178.912 22.5674 178.693 22.4339H178.683ZM169.027 17.0906C168.207 16.6899 167.377 16.2987 166.527 15.917C166.298 15.8121 166.022 15.917 165.917 16.146C165.812 16.375 165.917 16.6517 166.146 16.7662C166.985 17.1479 167.806 17.5391 168.617 17.9398C168.684 17.9685 168.751 17.9875 168.817 17.9875C168.989 17.9875 169.151 17.8921 169.237 17.7299C169.352 17.5009 169.256 17.2242 169.027 17.1097V17.0906Z" fill="#FF5722"/>
<path d="M146.223 100.016C144.057 101.151 141.605 102.907 141.844 103.384C142.092 103.851 144.935 102.849 147.11 101.714C147.311 101.609 147.502 101.514 147.692 101.409C148.007 101.523 148.675 101.771 149.515 102.086C149.505 102.086 149.486 102.086 149.477 102.086L148.895 102.391C148.828 102.429 148.799 102.525 148.847 102.611L149.143 103.174C149.19 103.26 149.276 103.298 149.353 103.26L149.935 102.954C149.935 102.954 149.982 102.907 149.992 102.868L150.669 102.515C151.385 102.783 152.167 103.069 152.931 103.355L152.358 103.651C152.291 103.689 152.263 103.784 152.311 103.87L152.606 104.433C152.654 104.519 152.74 104.557 152.816 104.519L153.398 104.214C153.398 104.214 153.446 104.166 153.456 104.128L154.114 103.784C156.07 104.5 157.711 105.101 157.778 105.092C157.921 105.072 158.77 104.595 158.77 104.595C158.97 104.49 159.123 104.386 159.114 104.357C159.104 104.338 158.866 104.433 158.675 104.538L155.23 102.458C155.383 102.363 155.488 102.267 155.459 102.229C155.431 102.181 155.249 102.229 155.049 102.325H155.03L154.352 101.924C154.496 101.838 154.591 101.743 154.572 101.695C154.543 101.647 154.362 101.695 154.162 101.79L153.541 101.418L153.198 101.056C153.379 100.951 153.503 100.846 153.475 100.798C153.446 100.75 153.265 100.798 153.064 100.893H153.055L152.368 100.168C152.549 100.073 152.673 99.9583 152.644 99.9105C152.616 99.8628 152.435 99.9105 152.234 100.006L151.604 99.3381C153.055 98.5652 153.618 98.2408 154.696 97.6778C155.784 97.1149 156.785 96.4947 157.616 95.9222C158.684 96.3134 160.793 97.1054 160.793 97.1054L161.423 96.8382L159.409 94.5387C159.581 94.386 159.705 94.262 159.791 94.1666C160.22 93.8994 160.488 93.7181 160.459 93.6704C160.44 93.6227 160.144 93.7277 159.696 93.928C159.562 93.9471 159.381 93.9853 159.142 94.0521L158.398 91.0561L157.816 91.4186C157.816 91.4186 157.224 93.7563 156.938 94.8154C156.032 95.1589 155.001 95.5883 153.913 96.0558C152.568 96.7523 151.967 97.0481 150.727 97.6778L150.536 96.7809C150.736 96.676 150.879 96.5424 150.851 96.4947C150.822 96.447 150.66 96.4947 150.479 96.571L150.269 95.5883H150.278C150.479 95.4738 150.622 95.3497 150.593 95.302C150.564 95.2543 150.402 95.302 150.221 95.3879L150.116 94.9013L150.164 94.1761C150.364 94.0712 150.507 93.9376 150.479 93.8899C150.459 93.8517 150.326 93.8708 150.164 93.9376L150.211 93.1456H150.23C150.431 93.0311 150.574 92.9071 150.545 92.8499C150.526 92.8117 150.383 92.8308 150.221 92.9071L150.479 88.8901C150.669 88.7852 150.889 88.6516 150.879 88.6325C150.87 88.6134 150.698 88.6707 150.488 88.7852C150.488 88.7852 149.61 89.205 149.515 89.3195C149.477 89.3672 149.028 91.0561 148.494 93.0693L147.836 93.4128C147.836 93.4128 147.769 93.4033 147.731 93.4128L147.149 93.7181C147.082 93.7563 147.053 93.8517 147.101 93.9376L147.397 94.5005C147.444 94.5864 147.53 94.6246 147.607 94.5864L148.179 94.2906C147.969 95.0826 147.759 95.884 147.568 96.6283L146.891 96.9813C146.891 96.9813 146.824 96.9718 146.786 96.9813L146.204 97.2866C146.137 97.3248 146.109 97.4202 146.156 97.5061L146.452 98.069C146.5 98.1549 146.586 98.1931 146.662 98.1549L147.244 97.8496C147.244 97.8496 147.254 97.8305 147.263 97.821C147.044 98.6797 146.862 99.3571 146.776 99.6911C146.586 99.7865 146.395 99.8915 146.194 99.9964L146.223 100.016Z" fill="#FF5722"/>
</svg>
