<svg width="89" height="126" viewBox="0 0 89 126" fill="none" xmlns="http://www.w3.org/2000/svg">
<path d="M33.8676 46.4032C33.8676 44.0019 31.9204 42.0547 29.5191 42.0547C27.1178 42.0547 25.1706 44.0019 25.1706 46.4032C25.1706 46.4032 24.9741 47.9138 26.6943 50.3675C27.4671 51.4721 29.5191 54.7509 29.5191 54.7509C29.5191 54.7509 31.5711 51.4721 32.3439 50.3675C34.0641 47.9138 33.8676 46.4032 33.8676 46.4032ZM29.5191 49.6515C27.7684 49.6515 26.3494 48.2325 26.3494 46.4818C26.3494 44.731 27.7684 43.3121 29.5191 43.3121C31.2699 43.3121 32.6888 44.731 32.6888 46.4818C32.6888 48.2325 31.2699 49.6515 29.5191 49.6515Z" fill="#FF5722"/>
<path d="M39.6722 22.4512C38.9279 21.936 38.1741 21.4207 37.4108 20.915C37.2009 20.7719 37.1341 20.4857 37.2772 20.2758C37.4204 20.0659 37.7066 19.9991 37.9165 20.1422C38.6894 20.6479 39.4527 21.1631 40.1969 21.6879C40.4068 21.831 40.4641 22.1268 40.3114 22.3367C40.2256 22.4703 40.0729 22.5371 39.9298 22.5371C39.8344 22.5371 39.7485 22.5085 39.6626 22.4512H39.6722ZM35.6075 18.6442C34.8346 18.1576 34.0522 17.6709 33.2603 17.1939C33.0408 17.0603 32.7546 17.1271 32.621 17.3561C32.4874 17.5755 32.5638 17.8618 32.7832 17.9954C33.5656 18.4724 34.348 18.9495 35.1113 19.4361C35.1877 19.4838 35.2735 19.5124 35.3594 19.5124C35.5121 19.5124 35.6647 19.4361 35.7506 19.293C35.8842 19.0735 35.8269 18.7873 35.6075 18.6537V18.6442ZM52.8394 32.7846C52.9634 32.7846 53.0875 32.7369 53.1829 32.632C53.3546 32.4411 53.3451 32.1454 53.1543 31.9736C52.4768 31.363 51.7898 30.7523 51.0933 30.1417C50.9025 29.9699 50.6067 29.9985 50.4349 30.1894C50.2632 30.3802 50.2918 30.676 50.4826 30.8477C51.1792 31.4488 51.8566 32.0595 52.5245 32.6701C52.6104 32.756 52.7249 32.7942 52.8394 32.7942V32.7846ZM49.2804 116.864C48.5267 116.387 47.7633 115.891 46.9905 115.376C46.7806 115.233 46.4943 115.29 46.3416 115.5C46.1985 115.71 46.2558 115.996 46.4657 116.149C47.2481 116.673 48.021 117.179 48.7747 117.656C48.8511 117.704 48.9369 117.723 49.0228 117.723C49.1755 117.723 49.3281 117.647 49.414 117.503C49.5476 117.284 49.4808 116.998 49.2709 116.864H49.2804ZM30.8845 15.8104C30.0925 15.3524 29.291 14.9039 28.48 14.465C28.251 14.341 27.9743 14.4268 27.8503 14.6463C27.7262 14.8753 27.8121 15.152 28.0315 15.276C28.833 15.7149 29.6345 16.1634 30.4169 16.6118C30.4932 16.65 30.5696 16.6691 30.6459 16.6691C30.8081 16.6691 30.9608 16.5832 31.0467 16.4401C31.1707 16.2206 31.0944 15.9344 30.8749 15.8104H30.8845ZM48.6889 29.1875C48.8224 29.1875 48.956 29.1303 49.0419 29.0158C49.2041 28.8154 49.1755 28.5291 48.9846 28.3669C48.2786 27.7849 47.5725 27.2029 46.8473 26.6304C46.647 26.4777 46.3512 26.5063 46.1985 26.7067C46.0363 26.9071 46.0745 27.2029 46.2749 27.3555C46.9905 27.928 47.6965 28.5005 48.4026 29.0825C48.4885 29.1589 48.5934 29.1875 48.6984 29.1875H48.6889ZM42.5537 112.179C42.3533 112.027 42.0575 112.065 41.9049 112.265C41.7522 112.466 41.7904 112.761 41.9907 112.914C42.735 113.486 43.4792 114.03 44.2044 114.555C44.2902 114.612 44.3856 114.641 44.4715 114.641C44.6146 114.641 44.7578 114.574 44.8436 114.45C44.9963 114.24 44.9486 113.954 44.7387 113.801C44.0135 113.277 43.2788 112.733 42.5441 112.17L42.5537 112.179ZM44.0994 25.6762C44.1853 25.743 44.2807 25.7717 44.3761 25.7717C44.5192 25.7717 44.6528 25.7049 44.7482 25.5904C44.9009 25.39 44.8627 25.0942 44.6624 24.9415C43.9372 24.3881 43.193 23.8443 42.4487 23.3004C42.2484 23.1478 41.9526 23.1955 41.7999 23.4054C41.6473 23.6153 41.6949 23.9015 41.9049 24.0542C42.6491 24.5885 43.3838 25.1324 44.0994 25.6858V25.6762ZM38.2791 108.754C38.0787 108.592 37.7925 108.611 37.6207 108.811C37.4585 109.011 37.4776 109.298 37.678 109.469C38.3936 110.071 39.1092 110.653 39.8057 111.216C39.8916 111.282 39.9966 111.321 40.092 111.321C40.2256 111.321 40.3591 111.263 40.4546 111.149C40.6168 110.948 40.5786 110.653 40.3782 110.5C39.6817 109.937 38.9756 109.365 38.26 108.763L38.2791 108.754ZM85.3186 85.3295C85.538 86.2264 85.7384 87.1138 85.9197 87.9916C85.9674 88.2111 86.1582 88.3637 86.3777 88.3637C86.4063 88.3637 86.4445 88.3637 86.4731 88.3637C86.7212 88.316 86.8834 88.0679 86.8357 87.8199C86.6544 86.9325 86.454 86.0261 86.2346 85.1196C86.1773 84.8716 85.9292 84.7189 85.6716 84.7761C85.4235 84.8334 85.2709 85.091 85.3281 85.3391L85.3186 85.3295ZM86.4158 90.6823C86.5685 91.5888 86.6925 92.4952 86.807 93.3826C86.8357 93.6211 87.036 93.7928 87.265 93.7928C87.2841 93.7928 87.3032 93.7928 87.3223 93.7928C87.5799 93.7642 87.7612 93.5352 87.723 93.2776C87.6181 92.3712 87.4845 91.4647 87.3318 90.5392C87.2937 90.2911 87.0456 90.1098 86.7975 90.1575C86.5399 90.1957 86.3777 90.4342 86.4158 90.6919V90.6823ZM26.0374 13.1578C25.2264 12.738 24.4058 12.3182 23.5757 11.9079C23.3467 11.7934 23.07 11.8888 22.9555 12.1178C22.841 12.3468 22.9364 12.6235 23.1654 12.738C23.986 13.1483 24.8065 13.5586 25.608 13.9784C25.6748 14.0166 25.7512 14.0261 25.8179 14.0261C25.9801 14.0261 26.1423 13.9307 26.2282 13.778C26.3427 13.549 26.2569 13.2723 26.0279 13.1483L26.0374 13.1578ZM83.8492 80.0627C84.1259 80.9405 84.3835 81.8183 84.6316 82.6866C84.6888 82.8869 84.8797 83.0205 85.08 83.0205C85.1182 83.0205 85.1659 83.0205 85.2041 83.0014C85.4522 82.9346 85.5953 82.677 85.5285 82.4289C85.2804 81.5511 85.0228 80.6733 84.7366 79.7859C84.6602 79.5379 84.4026 79.4043 84.1545 79.4806C83.9064 79.557 83.7728 79.8146 83.8492 80.0627ZM87.0742 96.0923C87.141 97.0083 87.1887 97.9243 87.2173 98.8116C87.2173 99.0597 87.4273 99.2601 87.6849 99.2601H87.6944C87.952 99.2601 88.1524 99.0406 88.1428 98.783C88.1142 97.8766 88.0665 96.9511 87.9997 96.016C87.9806 95.7584 87.7517 95.5676 87.5036 95.5866C87.246 95.6057 87.0551 95.8252 87.0742 96.0828V96.0923ZM82.9809 77.4769C83.0477 77.6677 83.229 77.7918 83.4198 77.7918C83.4675 77.7918 83.5248 77.7918 83.5725 77.7632C83.811 77.6773 83.9446 77.4101 83.8587 77.1716C83.5629 76.3129 83.2385 75.4446 82.9046 74.5763C82.8092 74.3378 82.542 74.2137 82.3035 74.3091C82.0649 74.4046 81.9409 74.6717 82.0363 74.9103C82.3703 75.769 82.6756 76.6277 82.9809 77.4769ZM73.5062 57.8024C73.5921 57.9455 73.7448 58.0218 73.8974 58.0218C73.9833 58.0218 74.0692 58.0028 74.1455 57.9551C74.365 57.8215 74.4318 57.5352 74.2982 57.3158C73.8211 56.5429 73.3249 55.7605 72.8192 54.9877C72.6761 54.7682 72.3899 54.711 72.18 54.8541C71.9605 54.9972 71.9033 55.2834 72.0464 55.4934C72.5521 56.2662 73.0387 57.0295 73.5158 57.8024H73.5062ZM78.7827 67.3916C78.859 67.5538 79.0307 67.6492 79.2025 67.6492C79.2693 67.6492 79.3361 67.6301 79.4029 67.6015C79.6319 67.487 79.7273 67.2103 79.6223 66.9813C79.2216 66.1607 78.8113 65.3402 78.3915 64.51C78.277 64.2811 77.9907 64.1952 77.7617 64.3097C77.5327 64.4242 77.4468 64.7104 77.5613 64.9394C77.9812 65.76 78.3915 66.571 78.7827 67.382V67.3916ZM69.4797 124.106C68.6114 124.106 67.7145 124.039 66.7986 123.925C66.5505 123.896 66.312 124.077 66.2833 124.326C66.2547 124.583 66.436 124.812 66.6841 124.841C67.6382 124.955 68.5733 125.022 69.4797 125.022C69.7373 125.022 69.9473 124.812 69.9473 124.564C69.9473 124.306 69.7469 124.097 69.4893 124.097L69.4797 124.106ZM54.013 119.593C53.2306 119.183 52.4291 118.744 51.6276 118.276C51.4082 118.152 51.1219 118.229 50.9979 118.448C50.8738 118.667 50.9502 118.954 51.1696 119.078C51.9902 119.555 52.8012 119.994 53.5932 120.414C53.66 120.452 53.7363 120.461 53.8031 120.461C53.9653 120.461 54.1275 120.366 54.2134 120.213C54.3279 119.984 54.242 119.707 54.013 119.583V119.593ZM79.4601 120.938C78.7541 121.482 78.0098 121.959 77.2179 122.37C76.9889 122.484 76.903 122.77 77.0175 122.999C77.1034 123.161 77.2656 123.247 77.4278 123.247C77.5041 123.247 77.5709 123.228 77.6377 123.2C78.4678 122.77 79.2788 122.255 80.0231 121.683C80.2234 121.53 80.2616 121.234 80.1089 121.034C79.9467 120.833 79.6605 120.795 79.4601 120.948V120.938ZM81.6356 72.6298C81.8741 72.5344 81.9886 72.2577 81.8836 72.0192C81.5306 71.1795 81.168 70.3303 80.7864 69.4907C80.6814 69.2617 80.4047 69.1567 80.1757 69.2617C79.9372 69.3667 79.8418 69.6434 79.9467 69.8724C80.3284 70.712 80.691 71.5421 81.0345 72.3818C81.1108 72.5631 81.2825 72.668 81.4638 72.668C81.5211 72.668 81.5878 72.6585 81.6451 72.6298H81.6356ZM77.0843 62.0865C76.6454 61.285 76.1874 60.4835 75.7198 59.6821C75.5958 59.4626 75.3096 59.3863 75.0901 59.5199C74.8707 59.6534 74.7943 59.9301 74.9279 60.1496C75.3955 60.9415 75.8439 61.7335 76.2733 62.535C76.3591 62.6876 76.5118 62.7735 76.6835 62.7735C76.7599 62.7735 76.8362 62.7544 76.903 62.7163C77.132 62.5922 77.2083 62.306 77.0843 62.0865ZM86.0056 111.912C85.7575 111.826 85.4999 111.95 85.414 112.198C85.1087 113.067 84.7652 113.897 84.3835 114.689C84.269 114.918 84.3644 115.194 84.603 115.309C84.6698 115.337 84.7365 115.357 84.8033 115.357C84.9751 115.357 85.1373 115.261 85.2232 115.099C85.6239 114.278 85.977 113.41 86.2918 112.513C86.3777 112.275 86.2536 112.008 86.0056 111.922V111.912ZM87.7039 101.092C87.4272 101.083 87.2364 101.283 87.2269 101.541C87.1982 102.466 87.1506 103.372 87.0647 104.25C87.0456 104.508 87.2269 104.727 87.4845 104.756C87.494 104.756 87.5131 104.756 87.5227 104.756C87.7612 104.756 87.9616 104.575 87.9807 104.336C88.0665 103.439 88.1142 102.504 88.1428 101.569C88.1428 101.312 87.952 101.102 87.6944 101.092H87.7039ZM74.7657 123.362C73.9356 123.619 73.0578 123.81 72.1609 123.934C71.9032 123.973 71.7315 124.202 71.7601 124.459C71.7888 124.688 71.9891 124.86 72.2181 124.86C72.2372 124.86 72.2563 124.86 72.2849 124.86C73.2295 124.726 74.1646 124.526 75.0424 124.259C75.2905 124.182 75.4241 123.925 75.3477 123.677C75.2714 123.429 75.0138 123.295 74.7657 123.371V123.362ZM87.265 106.559C87.017 106.521 86.7689 106.693 86.7307 106.941C86.5876 107.847 86.3968 108.744 86.1869 109.594C86.1201 109.842 86.2727 110.09 86.5208 110.156C86.559 110.156 86.5971 110.166 86.6353 110.166C86.8452 110.166 87.036 110.023 87.0838 109.813C87.3032 108.935 87.4845 108.019 87.6371 107.084C87.6753 106.826 87.5036 106.588 87.2555 106.55L87.265 106.559ZM83.7061 116.874C83.4961 116.731 83.2004 116.788 83.0668 117.007C82.5706 117.761 82.0172 118.477 81.4352 119.116C81.2634 119.307 81.273 119.603 81.4638 119.774C81.5497 119.851 81.6642 119.898 81.7787 119.898C81.9027 119.898 82.0268 119.851 82.1222 119.746C82.7424 119.068 83.3244 118.314 83.8492 117.522C83.9923 117.313 83.9351 117.017 83.7156 116.883L83.7061 116.874ZM60.9878 39.7499C60.3676 39.0725 59.7379 38.4046 59.0986 37.7367C58.9173 37.5554 58.6311 37.5458 58.4403 37.7271C58.259 37.9084 58.2494 38.1947 58.4307 38.3855C59.07 39.0438 59.6902 39.7118 60.3008 40.3797C60.3962 40.4751 60.5203 40.5323 60.6443 40.5323C60.7588 40.5323 60.8733 40.4942 60.9592 40.4083C61.15 40.2365 61.1596 39.9407 60.9878 39.7499ZM58.9746 121.835C58.154 121.511 57.3144 121.158 56.4747 120.776C56.2457 120.671 55.969 120.776 55.8545 121.005C55.7495 121.234 55.8545 121.511 56.0835 121.616C56.9422 122.007 57.801 122.37 58.6406 122.704C58.6979 122.723 58.7551 122.732 58.8124 122.732C58.9936 122.732 59.1749 122.618 59.2417 122.436C59.3371 122.198 59.2131 121.931 58.9746 121.835ZM56.8373 36.5631C56.9518 36.5631 57.0758 36.5154 57.1617 36.4295C57.343 36.2482 57.343 35.9524 57.1617 35.7711C56.5128 35.1223 55.8545 34.483 55.1866 33.8437C55.0053 33.6625 54.7095 33.672 54.5282 33.8628C54.347 34.0441 54.3565 34.3399 54.5473 34.5212C55.2152 35.1509 55.864 35.7902 56.5129 36.4295C56.5987 36.5154 56.7228 36.5631 56.8373 36.5631ZM69.7087 50.4268C69.5561 50.2169 69.2698 50.1692 69.0599 50.3219C68.85 50.4745 68.8023 50.7608 68.9549 50.9707C69.4893 51.7149 70.0236 52.4592 70.5293 53.2034C70.6152 53.337 70.7678 53.4038 70.9109 53.4038C71.0064 53.4038 71.0922 53.3751 71.1781 53.3179C71.388 53.1748 71.4453 52.879 71.2926 52.6691C70.7774 51.9153 70.243 51.1615 69.6992 50.4173L69.7087 50.4268ZM67.6955 48.9574C67.7909 48.9574 67.8958 48.9288 67.9722 48.862C68.1725 48.7094 68.2202 48.4136 68.058 48.2132C67.5046 47.4881 66.9417 46.7629 66.3597 46.0378C66.1975 45.8374 65.9112 45.8088 65.7108 45.9614C65.5105 46.1236 65.4818 46.4099 65.6345 46.6102C66.207 47.3258 66.7699 48.051 67.3138 48.7666C67.4092 48.8907 67.5428 48.9479 67.6859 48.9479L67.6955 48.9574ZM64.1556 123.448C63.3064 123.257 62.4286 123.018 61.5412 122.742C61.2932 122.665 61.0355 122.799 60.9592 123.047C60.8829 123.295 61.0164 123.553 61.2645 123.629C62.171 123.915 63.0774 124.154 63.9552 124.354C63.9934 124.354 64.022 124.364 64.0602 124.364C64.2701 124.364 64.4609 124.221 64.5086 124.001C64.5659 123.753 64.4037 123.505 64.1556 123.448ZM62.8293 41.8013C62.6576 41.6105 62.3618 41.5914 62.1709 41.7632C61.9801 41.9349 61.9611 42.2212 62.1328 42.4215C62.7339 43.1085 63.335 43.805 63.917 44.5016C64.0125 44.6161 64.1365 44.6638 64.2701 44.6638C64.375 44.6638 64.48 44.6256 64.5659 44.5588C64.7662 44.3966 64.7853 44.1008 64.6231 43.9005C64.0411 43.1944 63.44 42.4979 62.8293 41.8013Z" fill="#FF5722"/>
<path d="M6.16257 4.45587C3.8917 3.54943 0.952911 2.8529 0.75254 3.33952C0.56171 3.83567 3.17609 5.33368 5.44696 6.24013C5.65687 6.326 5.85723 6.40233 6.0576 6.47866C6.1721 6.79353 6.42019 7.46143 6.73506 8.30108C6.72552 8.30108 6.72552 8.282 6.70644 8.27246L6.09577 8.03392C6.01944 8.0053 5.93358 8.05301 5.89541 8.13888L5.65687 8.73045C5.61871 8.81632 5.65686 8.91174 5.73319 8.94036L6.34386 9.1789C6.34386 9.1789 6.41064 9.1789 6.4488 9.1789L7.15489 9.46514C7.42205 10.1808 7.70827 10.9632 7.99452 11.7265L7.39343 11.4879C7.3171 11.4593 7.2312 11.507 7.19304 11.5929L6.9545 12.1845C6.91633 12.2703 6.95451 12.3658 7.03085 12.3944L7.64149 12.6329C7.64149 12.6329 7.70829 12.6329 7.74646 12.6329L8.43344 12.9096C9.16814 14.8656 9.78833 16.4972 9.82649 16.5354C9.93145 16.6403 10.8474 16.9647 10.8474 16.9647C11.0574 17.0506 11.2386 17.0983 11.2482 17.0697C11.2482 17.0506 11.0287 16.9361 10.8283 16.8502L10.1604 12.881C10.3322 12.9382 10.4753 12.9478 10.4849 12.9096C10.5039 12.8524 10.3513 12.7474 10.1413 12.6615H10.1223L9.98871 11.8696C10.1509 11.9173 10.2845 11.9364 10.3036 11.8887C10.3226 11.8314 10.17 11.7265 9.96009 11.6406L9.83604 10.925L9.89329 10.4288C10.0841 10.4956 10.2559 10.5242 10.2749 10.467C10.294 10.4097 10.1413 10.3048 9.93143 10.2189H9.92191L10.0269 9.21707C10.2177 9.28386 10.3799 9.30294 10.399 9.25523C10.4181 9.19798 10.2654 9.09303 10.0555 9.00715H10.046L10.1413 8.09117C11.6775 8.68274 12.2882 8.9022 13.4141 9.35065C14.5495 9.7991 15.6754 10.1521 16.6486 10.4097C17.0494 11.4689 17.8318 13.5966 17.8318 13.5966L18.452 13.9019L18.8813 10.8773C19.1008 10.9059 19.2821 10.9154 19.4157 10.9154C19.9023 11.0681 20.2076 11.1444 20.2267 11.1063C20.2458 11.0586 19.9786 10.9059 19.5397 10.696C19.4443 10.6101 19.2916 10.4956 19.0817 10.362L20.8564 7.84309L20.1981 7.64272C20.1981 7.64272 18.0417 8.72091 17.0589 9.19798C16.2097 8.73999 15.2079 8.23429 14.1488 7.71905C12.7366 7.15611 12.126 6.89849 10.8379 6.36416L11.3913 5.63901C11.6012 5.72489 11.792 5.75351 11.8111 5.69626C11.8302 5.64855 11.6966 5.55314 11.5058 5.46727L12.1164 4.66578H12.126C12.3359 4.75165 12.5267 4.78028 12.5458 4.72303C12.5649 4.67532 12.4313 4.57037 12.2405 4.49404L12.5458 4.09329L13.1278 3.65439C13.3377 3.74026 13.5286 3.76888 13.5477 3.71163C13.5667 3.66393 13.4618 3.58759 13.3091 3.51126L13.9484 3.03419H13.9675C14.1774 3.1296 14.3682 3.14869 14.3873 3.10098C14.4064 3.05327 14.2919 2.9674 14.1297 2.89107L17.3452 0.467532C17.5456 0.543864 17.7936 0.620196 17.8032 0.601113C17.8127 0.572489 17.6505 0.486615 17.4406 0.400742C17.4406 0.400742 16.5628 0 16.4101 0C16.3529 0 14.7785 0.763318 12.9084 1.6793L12.2214 1.4026C12.2214 1.4026 12.1832 1.33581 12.1546 1.32627L11.5439 1.08773C11.4676 1.0591 11.3817 1.10681 11.3436 1.19268L11.105 1.78426C11.0669 1.87013 11.1051 1.96554 11.1814 1.99417L11.7825 2.23271C11.0478 2.59528 10.3036 2.95786 9.61658 3.30135L8.91052 3.01511C8.91052 3.01511 8.87235 2.94832 8.84372 2.93877L8.23305 2.70024C8.15672 2.67161 8.07086 2.71932 8.03269 2.80519L7.79415 3.39677C7.75599 3.48264 7.79417 3.57805 7.8705 3.60668L8.48114 3.84521C8.48114 3.84521 8.50977 3.84521 8.51931 3.84521C7.72737 4.23642 7.09764 4.55128 6.79231 4.70395C6.59194 4.62762 6.39155 4.54174 6.18164 4.45587H6.16257Z" fill="#FF5722"/>
</svg>
