<svg width="120" height="125" viewBox="0 0 120 125" fill="none" xmlns="http://www.w3.org/2000/svg">
<path d="M21.6767 119.002C21.6004 119.174 21.4286 119.269 21.2569 119.269C21.1901 119.269 21.1233 119.26 21.066 119.231C20.2169 118.84 19.3867 118.43 18.5757 118C18.3467 117.876 18.2609 117.6 18.3849 117.371C18.5089 117.142 18.7856 117.056 19.0146 117.18C19.797 117.6 20.6176 118.01 21.4477 118.392C21.6767 118.497 21.7817 118.773 21.6767 119.002ZM20.0546 46.8687C20.2169 46.6684 20.1787 46.3726 19.9783 46.2199C19.7779 46.0577 19.4822 46.0959 19.3295 46.2963C18.7475 47.0214 18.1845 47.7466 17.6407 48.4717C17.488 48.6721 17.5262 48.9679 17.7265 49.1205C17.8124 49.1873 17.9078 49.216 18.0032 49.216C18.1464 49.216 18.2799 49.1492 18.3753 49.0347C18.9192 48.319 19.4822 47.5939 20.0546 46.8783V46.8687ZM16.6674 115.815C15.8946 115.329 15.1408 114.814 14.4252 114.289C14.2153 114.136 13.929 114.184 13.7764 114.384C13.6237 114.594 13.6714 114.88 13.8718 115.033C14.6065 115.577 15.3793 116.102 16.1713 116.598C16.2476 116.646 16.3335 116.665 16.4193 116.665C16.572 116.665 16.7247 116.588 16.8105 116.445C16.9441 116.226 16.8869 115.939 16.6674 115.806V115.815ZM13.4901 55.084C13.2802 54.9408 12.9844 55.0076 12.8508 55.2175C12.3356 55.9999 11.8394 56.7728 11.3624 57.5457C11.2288 57.7651 11.2956 58.0514 11.515 58.1849C11.5914 58.2326 11.6772 58.2517 11.7631 58.2517C11.9158 58.2517 12.0684 58.1754 12.1543 58.0323C12.6314 57.269 13.118 56.4961 13.6237 55.7232C13.7668 55.5133 13.7096 55.2175 13.4901 55.084ZM10.351 110.739C10.1697 110.558 9.87389 110.549 9.69261 110.739C9.51132 110.921 9.50178 111.216 9.69261 111.398C10.3319 112.056 11.0093 112.695 11.7154 113.306C11.8013 113.382 11.9158 113.421 12.0207 113.421C12.1543 113.421 12.2783 113.363 12.3738 113.258C12.5455 113.068 12.5169 112.772 12.3261 112.6C11.6391 112.008 10.9807 111.379 10.3605 110.739H10.351ZM26.5047 37.9188C25.8749 38.6058 25.2643 39.2833 24.6536 39.9607C24.4819 40.1516 24.501 40.4473 24.6918 40.6191C24.7777 40.6954 24.8922 40.7336 24.9971 40.7336C25.1212 40.7336 25.2548 40.6763 25.3406 40.5809C25.9417 39.9035 26.5524 39.226 27.1726 38.5486C27.3443 38.3578 27.3348 38.062 27.144 37.8902C26.9531 37.7185 26.6574 37.728 26.4856 37.9188H26.5047ZM31.7811 121.75C30.8842 121.559 29.9969 121.34 29.1286 121.111C28.8805 121.035 28.6229 121.197 28.5561 121.435C28.4893 121.683 28.642 121.941 28.8901 121.998C29.7679 122.237 30.6743 122.447 31.5808 122.647C31.6094 122.647 31.6475 122.657 31.6762 122.657C31.8861 122.657 32.0864 122.504 32.1342 122.294C32.1914 122.046 32.0292 121.798 31.7811 121.741V121.75ZM23.4991 41.9931C23.3083 41.8309 23.0125 41.8499 22.8408 42.0408C22.2396 42.7468 21.6481 43.4529 21.066 44.1494C20.9038 44.3498 20.9325 44.636 21.1233 44.8078C21.2092 44.8746 21.3141 44.9127 21.4191 44.9127C21.5527 44.9127 21.6862 44.8555 21.7817 44.741C22.3541 44.0445 22.9457 43.3479 23.5468 42.6419C23.709 42.451 23.69 42.1553 23.4991 41.9835V41.9931ZM34.8439 30.0376C34.6626 29.8563 34.3669 29.8468 34.1856 30.028C33.5177 30.6769 32.8688 31.3161 32.22 31.9554C32.0387 32.1367 32.0387 32.4325 32.22 32.6138C32.3059 32.7092 32.4299 32.7474 32.5444 32.7474C32.6589 32.7474 32.783 32.6997 32.8688 32.6138C33.5081 31.9745 34.1569 31.3352 34.8249 30.696C35.0061 30.5147 35.0157 30.2189 34.8344 30.0376H34.8439ZM26.5238 120.348C25.646 120.061 24.7872 119.756 23.9571 119.441C23.7186 119.346 23.4514 119.47 23.356 119.708C23.2606 119.947 23.3846 120.214 23.6232 120.309C24.4628 120.634 25.3406 120.949 26.2375 121.235C26.2852 121.254 26.3329 121.254 26.3806 121.254C26.581 121.254 26.7623 121.13 26.8196 120.93C26.8959 120.682 26.7623 120.424 26.5238 120.348ZM29.0618 36.5449C29.682 35.8865 30.3117 35.2281 30.9606 34.5698C31.1418 34.3885 31.1323 34.0927 30.9606 33.9114C30.7793 33.7301 30.4835 33.7397 30.3022 33.9114C29.6534 34.5793 29.0141 35.2377 28.3939 35.8961C28.2222 36.0869 28.2222 36.3731 28.413 36.5544C28.4989 36.6403 28.6134 36.6785 28.7278 36.6785C28.8519 36.6785 28.9759 36.6307 29.0618 36.5353V36.5449ZM1.31519 89.0802C1.57281 89.0802 1.77318 88.8799 1.78272 88.6222C1.78272 87.7253 1.83043 86.8189 1.89722 85.9125C1.9163 85.6548 1.72547 85.4354 1.46785 85.4163C1.21977 85.4068 0.990778 85.5881 0.971695 85.8457C0.895364 86.7712 0.857198 87.7063 0.847656 88.6222C0.847656 88.8799 1.04803 89.0898 1.30565 89.0898L1.31519 89.0802ZM2.1453 94.0227C2.01172 93.1449 1.9163 92.2385 1.85905 91.332C1.83997 91.0744 1.62052 90.8836 1.3629 90.9027C1.10528 90.9217 0.914447 91.1412 0.93353 91.3988C0.990778 92.3243 1.09573 93.2594 1.22932 94.1658C1.26748 94.3948 1.45831 94.5666 1.68731 94.5666C1.70639 94.5666 1.73501 94.5666 1.7541 94.5666C2.01172 94.5284 2.18346 94.2899 2.1453 94.0418V94.0227ZM1.67776 83.6034C1.67776 83.6034 1.72547 83.6034 1.74456 83.6034C1.97355 83.6034 2.17392 83.4317 2.20255 83.2027C2.32659 82.3249 2.47925 81.4184 2.66054 80.5215C2.70824 80.2735 2.54604 80.0254 2.29796 79.9777C2.04988 79.93 1.8018 80.0922 1.7541 80.3402C1.57281 81.2562 1.4106 82.1722 1.28656 83.0691C1.2484 83.3267 1.42969 83.5557 1.67776 83.5939V83.6034ZM2.70824 78.2125C2.70824 78.2125 2.78458 78.2316 2.82274 78.2316C3.03265 78.2316 3.21394 78.0885 3.27119 77.8881C3.49065 77.0294 3.74827 76.142 4.02497 75.2737C4.1013 75.0256 3.96772 74.768 3.71964 74.6917C3.47156 74.6154 3.21394 74.7489 3.13761 74.997C2.86091 75.8844 2.60329 76.7813 2.37429 77.6591C2.3075 77.9072 2.46017 78.1648 2.70824 78.222V78.2125ZM14.7782 53.6527C14.9213 53.6527 15.074 53.5859 15.1599 53.4524C15.6751 52.7177 16.1999 51.9734 16.7438 51.2197C16.8964 51.0098 16.8487 50.7235 16.6388 50.5708C16.4289 50.4182 16.1426 50.4659 15.99 50.6758C15.4366 51.4296 14.9118 52.1738 14.3966 52.9276C14.2534 53.1375 14.3011 53.4237 14.5111 53.5764C14.5874 53.6337 14.6828 53.6623 14.7782 53.6623V53.6527ZM6.94466 106.551C6.80154 106.341 6.51529 106.284 6.29584 106.427C6.08593 106.57 6.02868 106.856 6.1718 107.075C6.68704 107.839 7.24999 108.593 7.83202 109.308C7.92743 109.423 8.06101 109.48 8.19459 109.48C8.29955 109.48 8.40451 109.442 8.49038 109.375C8.69075 109.213 8.71937 108.917 8.55717 108.726C7.98468 108.03 7.44082 107.295 6.94466 106.56V106.551ZM6.36263 67.8695C6.42942 67.8982 6.48667 67.9077 6.55346 67.9077C6.73475 67.9077 6.89695 67.8027 6.97328 67.6405C7.3454 66.8295 7.7366 66.0089 8.14689 65.1788C8.26138 64.9498 8.16597 64.6731 7.93697 64.5586C7.70798 64.4441 7.43128 64.5396 7.31678 64.7686C6.89695 65.6082 6.49621 66.4383 6.12409 67.2589C6.01914 67.4879 6.12409 67.7646 6.35309 67.8695H6.36263ZM2.66054 96.6848C2.60329 96.4367 2.35521 96.2745 2.10713 96.3413C1.85905 96.3986 1.70639 96.6466 1.76364 96.8947C1.97355 97.8011 2.23117 98.7076 2.51741 99.5759C2.5842 99.7667 2.76549 99.8907 2.95632 99.8907C3.00403 99.8907 3.05174 99.8907 3.09944 99.8716C3.33798 99.7953 3.47156 99.5282 3.39523 99.2896C3.11853 98.4404 2.87045 97.5626 2.66054 96.6848ZM5.63748 69.5393C5.39894 69.4439 5.13178 69.5584 5.03636 69.7874C4.68333 70.6556 4.34938 71.5144 4.03451 72.3636C3.94864 72.6021 4.07268 72.8693 4.31121 72.9551C4.35892 72.9742 4.41617 72.9838 4.47342 72.9838C4.66425 72.9838 4.84554 72.8693 4.91233 72.6784C5.21765 71.8388 5.54206 70.9896 5.8951 70.1309C5.99051 69.8923 5.87601 69.6252 5.64702 69.5298L5.63748 69.5393ZM4.34938 101.818C4.24442 101.58 3.97726 101.475 3.73872 101.58C3.50019 101.685 3.39523 101.952 3.50019 102.19C3.8723 103.039 4.28259 103.879 4.73104 104.7C4.81691 104.852 4.96957 104.938 5.14132 104.938C5.21765 104.938 5.29398 104.919 5.36077 104.881C5.58977 104.757 5.6661 104.48 5.54206 104.251C5.1127 103.459 4.71195 102.648 4.34938 101.828V101.818ZM10.5895 59.7402C10.37 59.6066 10.0838 59.6829 9.95022 59.9119C9.48269 60.723 9.03424 61.5245 8.59534 62.3164C8.4713 62.5454 8.55717 62.8221 8.78617 62.9461C8.85296 62.9843 8.92929 63.0034 9.00562 63.0034C9.16782 63.0034 9.33003 62.9175 9.4159 62.7648C9.84527 61.9729 10.2937 61.181 10.7517 60.3795C10.8853 60.16 10.809 59.8738 10.58 59.7497L10.5895 59.7402ZM100.012 107.61C99.2107 108.058 98.4093 108.488 97.6078 108.917C97.3788 109.041 97.2929 109.318 97.4169 109.547C97.5028 109.699 97.665 109.795 97.8272 109.795C97.9036 109.795 97.9799 109.776 98.0467 109.738C98.8482 109.308 99.6592 108.869 100.47 108.421C100.69 108.297 100.776 108.011 100.651 107.791C100.527 107.572 100.241 107.486 100.022 107.61H100.012ZM90.2418 112.562C89.4021 112.943 88.572 113.316 87.7419 113.678C87.5033 113.783 87.3984 114.05 87.5033 114.289C87.5797 114.461 87.7514 114.566 87.9327 114.566C87.99 114.566 88.0567 114.556 88.114 114.527C88.9537 114.165 89.7933 113.783 90.6329 113.401C90.8619 113.297 90.9669 113.02 90.8619 112.791C90.757 112.562 90.4803 112.457 90.2513 112.562H90.2418ZM95.1747 110.176C94.3541 110.596 93.5336 110.997 92.7225 111.388C92.4935 111.503 92.3981 111.779 92.5031 112.008C92.5794 112.171 92.7512 112.266 92.9229 112.266C92.9897 112.266 93.0565 112.247 93.1233 112.218C93.9438 111.818 94.7644 111.417 95.5945 110.997C95.8235 110.882 95.9094 110.606 95.7949 110.377C95.6804 110.148 95.4037 110.052 95.1747 110.176ZM74.9277 118.468C74.0499 118.745 73.172 119.002 72.3038 119.25C72.0557 119.317 71.9126 119.575 71.9889 119.823C72.0462 120.023 72.237 120.157 72.4374 120.157C72.4755 120.157 72.5232 120.157 72.5614 120.138C73.4392 119.89 74.317 119.622 75.2044 119.346C75.4525 119.269 75.586 119.012 75.5097 118.764C75.4334 118.516 75.1758 118.382 74.9277 118.458V118.468ZM85.2229 114.747C84.3737 115.1 83.5246 115.434 82.6754 115.758C82.4368 115.854 82.3128 116.121 82.4082 116.359C82.475 116.541 82.6563 116.655 82.8376 116.655C82.8948 116.655 82.9521 116.646 83.0093 116.626C83.8585 116.302 84.7172 115.959 85.5664 115.606C85.805 115.51 85.9195 115.233 85.8145 115.004C85.7191 114.766 85.4424 114.651 85.2134 114.756L85.2229 114.747ZM80.1182 116.722C79.25 117.037 78.3912 117.333 77.5325 117.628C77.294 117.714 77.1604 117.972 77.2367 118.22C77.3035 118.411 77.4848 118.535 77.6756 118.535C77.7233 118.535 77.771 118.535 77.8283 118.506C78.6966 118.21 79.5648 117.915 80.4331 117.6C80.6717 117.514 80.7957 117.247 80.7098 117.008C80.6239 116.77 80.3568 116.646 80.1182 116.731V116.722ZM104.754 104.862C103.962 105.339 103.18 105.797 102.398 106.255C102.178 106.379 102.102 106.665 102.226 106.885C102.312 107.037 102.464 107.114 102.627 107.114C102.703 107.114 102.789 107.095 102.856 107.047C103.648 106.589 104.439 106.121 105.231 105.644C105.451 105.511 105.518 105.224 105.394 105.005C105.26 104.786 104.974 104.719 104.754 104.843V104.862ZM113.933 98.8793C113.179 99.4041 112.426 99.9194 111.672 100.435C111.462 100.578 111.405 100.864 111.548 101.083C111.634 101.217 111.786 101.284 111.93 101.284C112.015 101.284 112.111 101.255 112.187 101.207C112.941 100.692 113.704 100.177 114.458 99.6426C114.668 99.4995 114.716 99.2037 114.573 98.9938C114.429 98.7839 114.134 98.7362 113.924 98.8793H113.933ZM119.019 95.7593C118.866 95.5589 118.57 95.5112 118.37 95.6639C117.635 96.2173 116.901 96.7516 116.166 97.2859C115.956 97.4386 115.908 97.7248 116.061 97.9347C116.156 98.0588 116.29 98.1256 116.433 98.1256C116.529 98.1256 116.624 98.0969 116.71 98.0397C117.444 97.5054 118.189 96.9615 118.923 96.4081C119.124 96.2554 119.172 95.9596 119.019 95.7593ZM109.391 101.952C108.619 102.457 107.855 102.944 107.082 103.431C106.863 103.564 106.796 103.85 106.939 104.07C107.025 104.213 107.178 104.289 107.331 104.289C107.416 104.289 107.502 104.27 107.579 104.223C108.351 103.736 109.124 103.24 109.897 102.734C110.117 102.591 110.174 102.305 110.031 102.095C109.888 101.885 109.601 101.818 109.391 101.961V101.952ZM42.6107 123.115C41.6947 123.077 40.7883 123.019 39.8818 122.943C39.6147 122.905 39.4048 123.115 39.3857 123.363C39.3666 123.62 39.5574 123.84 39.8055 123.859C40.7119 123.935 41.6375 123.992 42.563 124.031H42.5821C42.8302 124.031 43.0305 123.84 43.0496 123.592C43.0591 123.334 42.8588 123.115 42.6107 123.105V123.115ZM47.057 19.6755C47.2574 19.5133 47.2765 19.2176 47.1143 19.0172C46.9521 18.8264 46.6563 18.7977 46.4559 18.9599C45.7498 19.561 45.0533 20.1526 44.3663 20.7442C44.1755 20.9159 44.1469 21.2022 44.3186 21.4026C44.414 21.5075 44.5381 21.5648 44.6717 21.5648C44.7766 21.5648 44.8911 21.5266 44.977 21.4503C45.664 20.8587 46.3605 20.2671 47.0666 19.666L47.057 19.6755ZM42.2863 22.5571C41.5898 23.1677 40.9028 23.7784 40.2349 24.389C40.044 24.5608 40.025 24.8566 40.1967 25.0474C40.2921 25.1523 40.4162 25.2001 40.5402 25.2001C40.6547 25.2001 40.7596 25.1619 40.8551 25.0856C41.523 24.4749 42.21 23.8738 42.9065 23.2631C43.0973 23.0914 43.1164 22.8051 42.9446 22.6048C42.7729 22.4139 42.4771 22.3949 42.2863 22.5666V22.5571ZM69.6608 119.966C68.7734 120.195 67.8861 120.414 67.0083 120.624C66.7602 120.682 66.6075 120.93 66.6648 121.178C66.7125 121.388 66.9033 121.54 67.1132 121.54C67.1514 121.54 67.18 121.54 67.2182 121.531C68.1055 121.321 69.0024 121.101 69.8993 120.872C70.1474 120.806 70.3001 120.558 70.2333 120.309C70.1665 120.061 69.9089 119.909 69.6703 119.976L69.6608 119.966ZM48.0684 123.153C47.3624 123.172 46.6658 123.181 45.9788 123.181H45.3396C45.101 123.143 44.872 123.382 44.872 123.639C44.872 123.897 45.0724 124.107 45.33 124.107H45.9788C46.6754 124.107 47.3814 124.107 48.097 124.078C48.3547 124.078 48.555 123.859 48.5455 123.601C48.5455 123.344 48.3356 123.153 48.0684 123.153ZM37.1721 122.657C36.2561 122.542 35.3592 122.409 34.4718 122.265C34.2237 122.227 33.9757 122.39 33.9375 122.647C33.8898 122.905 34.0615 123.143 34.3192 123.181C35.2161 123.334 36.132 123.468 37.0576 123.582C37.0766 123.582 37.0957 123.582 37.1148 123.582C37.3438 123.582 37.5442 123.41 37.5728 123.172C37.6014 122.914 37.4201 122.685 37.1721 122.657ZM38.2025 26.2401C37.5251 26.8698 36.8476 27.4996 36.1893 28.1198C36.008 28.301 35.9985 28.5873 36.1702 28.7781C36.2656 28.8735 36.3801 28.9212 36.5042 28.9212C36.6186 28.9212 36.7331 28.8831 36.819 28.7972C37.4774 28.177 38.1453 27.5473 38.8227 26.9271C39.0136 26.7553 39.0231 26.4595 38.8514 26.2687C38.6796 26.0779 38.3838 26.0683 38.193 26.2401H38.2025ZM58.9552 122.17C58.0488 122.304 57.1424 122.428 56.2455 122.542C55.9878 122.571 55.8066 122.8 55.8447 123.057C55.8733 123.296 56.0737 123.468 56.3027 123.468C56.3218 123.468 56.3409 123.468 56.36 123.468C57.2664 123.363 58.1728 123.239 59.0984 123.096C59.356 123.057 59.5277 122.819 59.4896 122.571C59.4514 122.313 59.2224 122.141 58.9648 122.18L58.9552 122.17ZM64.3366 121.206C63.4397 121.388 62.5428 121.569 61.6459 121.722C61.3979 121.769 61.2261 122.008 61.2738 122.256C61.312 122.485 61.5124 122.638 61.7318 122.638C61.7604 122.638 61.7891 122.638 61.8177 122.638C62.7146 122.475 63.621 122.304 64.5275 122.113C64.7756 122.065 64.9378 121.817 64.89 121.559C64.8423 121.311 64.5943 121.149 64.3462 121.197L64.3366 121.206ZM51.3507 15.5155C51.1885 15.3151 50.8927 15.2865 50.7019 15.4487C49.9863 16.0307 49.2706 16.6127 48.5741 17.1948C48.3737 17.357 48.3451 17.6527 48.5169 17.8531C48.6123 17.9676 48.7459 18.0249 48.8794 18.0249C48.9844 18.0249 49.0894 17.9867 49.1752 17.9199C49.8718 17.3379 50.5778 16.7654 51.2934 16.1834C51.4938 16.0212 51.5224 15.7254 51.3602 15.5345L51.3507 15.5155ZM53.5166 122.828C52.6006 122.914 51.6942 122.981 50.7877 123.029C50.5301 123.048 50.3393 123.267 50.3488 123.515C50.3679 123.764 50.5683 123.954 50.8068 123.954H50.8354C51.7419 123.897 52.6674 123.83 53.5929 123.744C53.8506 123.725 54.0318 123.496 54.0128 123.239C53.9937 122.981 53.7647 122.809 53.5071 122.819L53.5166 122.828Z" fill="#FF5722"/>
<path d="M67.1704 4.3532C69.0787 2.82657 71.1492 0.622488 70.8153 0.212204C70.4813 -0.198079 67.8765 1.32856 65.9682 2.86473C65.7965 3.00786 65.6247 3.14144 65.4625 3.27502C65.1286 3.21777 64.432 3.10327 63.5447 2.96015C63.5542 2.96015 63.5733 2.96015 63.5828 2.96015L64.0981 2.54987C64.1649 2.50216 64.1649 2.3972 64.0981 2.33041L63.6973 1.83425C63.6401 1.75792 63.5447 1.73884 63.4779 1.79609L62.9626 2.20637C62.9626 2.20637 62.9245 2.26362 62.9149 2.30179L62.3138 2.77886C61.56 2.65482 60.7395 2.52124 59.9284 2.38766L60.4341 1.98692C60.5009 1.93921 60.5009 1.83425 60.4341 1.76746L60.0334 1.27131C59.9762 1.19498 59.8807 1.17589 59.8139 1.23314L59.2987 1.64343C59.2987 1.64343 59.2605 1.70067 59.251 1.73884L58.669 2.19683C56.608 1.86288 54.881 1.59572 54.8238 1.6148C54.6806 1.66251 53.9459 2.29224 53.9459 2.29224C53.7647 2.43537 53.6406 2.56895 53.6502 2.58803C53.6692 2.60711 53.8792 2.46399 54.0509 2.33041L57.8389 3.71392C57.7053 3.83796 57.6289 3.95246 57.6576 3.99063C57.6957 4.03834 57.8675 3.95246 58.0392 3.80934L58.0583 3.79026L58.8026 4.06696C58.6785 4.18146 58.6022 4.29596 58.6308 4.33412C58.669 4.38183 58.8407 4.29596 59.0125 4.15283L59.6899 4.39137L60.1002 4.68716C59.9475 4.82074 59.8426 4.95432 59.8712 4.99248C59.9094 5.04019 60.0811 4.95432 60.2529 4.8112H60.2624L61.0734 5.38368C60.9208 5.51726 60.8158 5.65085 60.854 5.68901C60.8921 5.73672 61.0639 5.65085 61.2356 5.50772L61.9799 6.04205C60.7108 7.08207 60.2147 7.50189 59.2701 8.26521C58.3159 9.02853 57.4477 9.83001 56.7511 10.5456C55.6252 10.3739 53.4021 10.0018 53.4021 10.0018L52.8296 10.3834L55.2436 12.2535C55.11 12.4348 55.005 12.578 54.9478 12.6925C54.5757 13.0359 54.3562 13.2649 54.3848 13.3031C54.4135 13.3413 54.6806 13.1886 55.0814 12.9024C55.2054 12.8642 55.3772 12.7783 55.5966 12.6734L56.9038 15.469L57.4095 15.0015C57.4095 15.0015 57.5431 12.597 57.6194 11.4998C58.44 10.9845 59.375 10.3739 60.3483 9.69643C61.5314 8.75182 62.0657 8.35108 63.163 7.49235L63.516 8.332C63.3348 8.48466 63.2203 8.62778 63.2584 8.67549C63.287 8.71366 63.4397 8.64687 63.6115 8.52283L64.0027 9.44835H63.9931C63.8118 9.60102 63.6973 9.75368 63.7355 9.79185C63.7641 9.83001 63.9263 9.76322 64.0885 9.63918L64.2889 10.0972L64.3843 10.8128C64.203 10.9559 64.0885 11.1086 64.1267 11.1563C64.1553 11.1944 64.2794 11.1467 64.4225 11.0418L64.5274 11.8337H64.5084C64.3271 11.9864 64.2126 12.139 64.2507 12.1868C64.2794 12.2249 64.4129 12.1677 64.5561 12.0627L65.0713 16.0606C64.9091 16.2037 64.7183 16.3755 64.7278 16.3945C64.7469 16.4136 64.8996 16.3182 65.0808 16.1751C65.0808 16.1751 65.8632 15.5931 65.93 15.469C65.9587 15.4213 66.0732 13.6752 66.2067 11.5952L66.7888 11.1372C66.7888 11.1372 66.8651 11.1372 66.8937 11.1181L67.409 10.7078C67.4758 10.6601 67.4758 10.5552 67.409 10.4884L67.0082 9.99222C66.951 9.91588 66.8556 9.8968 66.7888 9.95405L66.2831 10.3548C66.3308 9.53423 66.3785 8.71366 66.4262 7.9408L67.0273 7.46373C67.0273 7.46373 67.1036 7.46373 67.1323 7.44464L67.6475 7.03436C67.7143 6.98665 67.7143 6.88169 67.6475 6.8149L67.2468 6.31875C67.1895 6.24242 67.0941 6.22333 67.0273 6.28058L66.5121 6.69087C66.5121 6.69087 66.5121 6.70995 66.493 6.72903C66.5502 5.84168 66.5884 5.14515 66.6075 4.80165C66.7697 4.66807 66.9414 4.53449 67.1227 4.39137L67.1704 4.3532Z" fill="#FF5722"/>
</svg>
